<svg width="252" height="53" viewBox="0 0 252 53" fill="none" xmlns="http://www.w3.org/2000/svg">
<path d="M40.2594 9.125H24.9994V52H15.5844V9.125H0.324414V1.39H40.2594V9.125ZM90.7764 16.09L79.3664 52H72.4364C71.6431 52 71.0948 51.4867 70.7914 50.46L64.3514 29.705C64.1414 29.005 63.9431 28.3167 63.7564 27.64C63.5931 26.94 63.4531 26.24 63.3364 25.54C63.1964 26.24 63.0331 26.9517 62.8464 27.675C62.6831 28.375 62.4964 29.075 62.2864 29.775L55.7414 50.46C55.4614 51.4867 54.8431 52 53.8864 52H47.2364L35.8614 16.09H42.7564C43.3864 16.09 43.9231 16.2417 44.3664 16.545C44.8098 16.8483 45.1014 17.2333 45.2414 17.7L50.3864 36.88C50.6431 37.93 50.8648 38.9567 51.0514 39.96C51.2614 40.9633 51.4364 41.9667 51.5764 42.97C51.8331 41.9667 52.1014 40.9633 52.3814 39.96C52.6848 38.9567 52.9998 37.93 53.3264 36.88L59.2764 17.63C59.4164 17.1633 59.6848 16.7783 60.0814 16.475C60.5014 16.1717 61.0031 16.02 61.5864 16.02H65.4014C66.0081 16.02 66.5214 16.1717 66.9414 16.475C67.3848 16.7783 67.6764 17.1633 67.8164 17.63L73.5914 36.88C73.8948 37.93 74.1748 38.9683 74.4314 39.995C74.7114 40.9983 74.9798 42.0017 75.2364 43.005C75.5398 41.0217 75.9714 38.98 76.5314 36.88L81.8164 17.7C81.9798 17.2333 82.2714 16.8483 82.6914 16.545C83.1114 16.2417 83.6131 16.09 84.1964 16.09H90.7764ZM104.653 16.09V52H95.9729V16.09H104.653ZM105.843 5.625C105.843 6.37166 105.691 7.07166 105.388 7.725C105.085 8.37833 104.676 8.95 104.163 9.44C103.673 9.93 103.09 10.3267 102.413 10.63C101.736 10.91 101.013 11.05 100.243 11.05C99.4962 11.05 98.7845 10.91 98.1079 10.63C97.4545 10.3267 96.8829 9.93 96.3929 9.44C95.9029 8.95 95.5062 8.37833 95.2029 7.725C94.9229 7.07166 94.7829 6.37166 94.7829 5.625C94.7829 4.855 94.9229 4.13166 95.2029 3.455C95.5062 2.77833 95.9029 2.195 96.3929 1.705C96.8829 1.215 97.4545 0.829998 98.1079 0.549999C98.7845 0.246665 99.4962 0.0949986 100.243 0.0949986C101.013 0.0949986 101.736 0.246665 102.413 0.549999C103.09 0.829998 103.673 1.215 104.163 1.705C104.676 2.195 105.085 2.77833 105.388 3.455C105.691 4.13166 105.843 4.855 105.843 5.625ZM121.551 20.5C122.275 19.7767 123.033 19.1117 123.826 18.505C124.643 17.875 125.495 17.35 126.381 16.93C127.291 16.4867 128.26 16.1483 129.286 15.915C130.313 15.6583 131.433 15.53 132.646 15.53C134.606 15.53 136.345 15.8683 137.861 16.545C139.378 17.1983 140.638 18.1317 141.641 19.345C142.668 20.535 143.438 21.97 143.951 23.65C144.488 25.3067 144.756 27.1383 144.756 29.145V52H136.111V29.145C136.111 26.9517 135.61 25.26 134.606 24.07C133.603 22.8567 132.075 22.25 130.021 22.25C128.528 22.25 127.128 22.5883 125.821 23.265C124.515 23.9417 123.278 24.8633 122.111 26.03V52H113.466V16.09H118.751C119.871 16.09 120.606 16.615 120.956 17.665L121.551 20.5ZM161.063 20.5C161.786 19.7767 162.545 19.1117 163.338 18.505C164.155 17.875 165.006 17.35 165.893 16.93C166.803 16.4867 167.771 16.1483 168.798 15.915C169.825 15.6583 170.945 15.53 172.158 15.53C174.118 15.53 175.856 15.8683 177.373 16.545C178.89 17.1983 180.15 18.1317 181.153 19.345C182.18 20.535 182.95 21.97 183.463 23.65C184 25.3067 184.268 27.1383 184.268 29.145V52H175.623V29.145C175.623 26.9517 175.121 25.26 174.118 24.07C173.115 22.8567 171.586 22.25 169.533 22.25C168.04 22.25 166.64 22.5883 165.333 23.265C164.026 23.9417 162.79 24.8633 161.623 26.03V52H152.978V16.09H158.263C159.383 16.09 160.118 16.615 160.468 17.665L161.063 20.5ZM215.625 29.915C215.625 28.795 215.461 27.745 215.135 26.765C214.831 25.7617 214.365 24.8867 213.735 24.14C213.105 23.3933 212.3 22.81 211.32 22.39C210.363 21.9467 209.243 21.725 207.96 21.725C205.463 21.725 203.491 22.4367 202.045 23.86C200.621 25.2833 199.711 27.3017 199.315 29.915H215.625ZM199.14 35.13C199.28 36.9733 199.606 38.5717 200.12 39.925C200.633 41.255 201.31 42.3633 202.15 43.25C202.99 44.1133 203.981 44.7667 205.125 45.21C206.291 45.63 207.575 45.84 208.975 45.84C210.375 45.84 211.576 45.6767 212.58 45.35C213.606 45.0233 214.493 44.6617 215.24 44.265C216.01 43.8683 216.675 43.5067 217.235 43.18C217.818 42.8533 218.378 42.69 218.915 42.69C219.638 42.69 220.175 42.9583 220.525 43.495L223.01 46.645C222.053 47.765 220.98 48.71 219.79 49.48C218.6 50.2267 217.351 50.8333 216.045 51.3C214.761 51.7433 213.443 52.0583 212.09 52.245C210.76 52.4317 209.465 52.525 208.205 52.525C205.708 52.525 203.386 52.1167 201.24 51.3C199.093 50.46 197.226 49.235 195.64 47.625C194.053 45.9917 192.805 43.985 191.895 41.605C190.985 39.2017 190.53 36.425 190.53 33.275C190.53 30.825 190.926 28.5267 191.72 26.38C192.513 24.21 193.645 22.3317 195.115 20.745C196.608 19.135 198.416 17.8633 200.54 16.93C202.686 15.9967 205.101 15.53 207.785 15.53C210.048 15.53 212.136 15.8917 214.05 16.615C215.963 17.3383 217.608 18.4 218.985 19.8C220.361 21.1767 221.435 22.88 222.205 24.91C222.998 26.9167 223.395 29.215 223.395 31.805C223.395 33.1117 223.255 33.9983 222.975 34.465C222.695 34.9083 222.158 35.13 221.365 35.13H199.14ZM238.037 22.32C239.157 20.1733 240.487 18.4933 242.027 17.28C243.567 16.0433 245.387 15.425 247.487 15.425C249.144 15.425 250.474 15.7867 251.477 16.51L250.917 22.985C250.801 23.405 250.626 23.7083 250.392 23.895C250.182 24.0583 249.891 24.14 249.517 24.14C249.167 24.14 248.642 24.0817 247.942 23.965C247.266 23.8483 246.601 23.79 245.947 23.79C244.991 23.79 244.139 23.93 243.392 24.21C242.646 24.49 241.969 24.8983 241.362 25.435C240.779 25.9483 240.254 26.5783 239.787 27.325C239.344 28.0717 238.924 28.9233 238.527 29.88V52H229.882V16.09H234.957C235.844 16.09 236.462 16.2533 236.812 16.58C237.162 16.8833 237.396 17.4433 237.512 18.26L238.037 22.32Z" fill="#FB2A6E"/>
</svg>
